<svg xmlns="http://www.w3.org/2000/svg" xmlns:xlink="http://www.w3.org/1999/xlink" width="500" zoomAndPan="magnify" viewBox="0 0 375 187.499995" height="250" preserveAspectRatio="xMidYMid meet" version="1.0"><defs><g/><clipPath id="d5fa3126fa"><path d="M 0.5 0 L 374.5 0 L 374.5 187 L 0.5 187 Z M 0.5 0 " clip-rule="nonzero"/></clipPath><clipPath id="dfdfc0ae4f"><path d="M 17.703125 0 L 357.296875 0 C 366.796875 0 374.5 7.703125 374.5 17.203125 L 374.5 169.796875 C 374.5 179.296875 366.796875 187 357.296875 187 L 17.703125 187 C 8.203125 187 0.5 179.296875 0.5 169.796875 L 0.5 17.203125 C 0.5 7.703125 8.203125 0 17.703125 0 " clip-rule="nonzero"/></clipPath></defs><g clip-path="url(#d5fa3126fa)"><g clip-path="url(#dfdfc0ae4f)"><path fill="#ffffff" d="M 0.5 0 L 374.792969 0 L 374.792969 186.710938 L 0.5 186.710938 Z M 0.5 0 " fill-opacity="1" fill-rule="nonzero"/></g></g><g fill="#0466c8" fill-opacity="1"><g transform="translate(40.739021, 66.572469)"><g><path d="M 2.273438 -20.359375 C 2.273438 -6.59375 12.71875 0.640625 23.160156 0.640625 C 31.851562 0.640625 40.894531 -3.96875 42.46875 -15.574219 L 32.203125 -15.574219 C 31.09375 -11.140625 27.59375 -9.101562 23.160156 -9.101562 C 16.917969 -9.101562 12.949219 -14.527344 12.949219 -20.417969 C 12.949219 -27.183594 16.976562 -31.851562 23.160156 -31.851562 C 27.535156 -31.851562 30.625 -30.21875 32.085938 -26.019531 L 42.351562 -26.019531 C 40.777344 -36.925781 31.558594 -41.476562 23.160156 -41.476562 C 12.71875 -41.476562 2.273438 -34.417969 2.273438 -20.359375 Z M 2.273438 -20.359375 "/></g></g></g><g fill="#0466c8" fill-opacity="1"><g transform="translate(85.07187, 66.572469)"><g><path d="M 39.027344 -1.574219 L 31.035156 -14.527344 C 35.058594 -17.269531 37.042969 -21.757812 37.101562 -26.425781 C 37.101562 -33.601562 32.261719 -40.894531 22.402344 -40.894531 C 16.394531 -40.953125 10.5 -40.894531 4.433594 -40.894531 L 4.433594 -0.0585938 L 15.109375 -0.0585938 L 15.109375 -12.835938 L 20.710938 -12.835938 L 27.710938 -0.0585938 L 39.027344 -0.0585938 Z M 22.34375 -21.527344 L 14.933594 -21.527344 L 14.933594 -31.617188 L 22.34375 -31.617188 C 25.375 -31.617188 26.777344 -29.226562 26.777344 -26.660156 C 26.777344 -24.09375 25.316406 -21.527344 22.34375 -21.527344 Z M 22.34375 -21.527344 "/></g></g></g><g fill="#0466c8" fill-opacity="1"><g transform="translate(125.671427, 66.572469)"><g><path d="M 23.859375 -8.632812 L 18.667969 -8.632812 L 18.667969 -32.203125 L 23.394531 -32.203125 L 23.394531 -40.835938 L 3.265625 -40.835938 L 3.265625 -32.203125 L 7.992188 -32.203125 L 7.992188 -8.632812 L 2.800781 -8.632812 L 2.800781 0 L 23.859375 0 Z M 23.859375 -8.632812 "/></g></g></g><g fill="#0466c8" fill-opacity="1"><g transform="translate(152.329467, 66.572469)"><g><path d="M 12.484375 -12.835938 L 2.332031 -12.835938 C 2.160156 -3.675781 10.441406 0.640625 19.078125 0.640625 C 27.417969 0.640625 35.761719 -3.851562 35.761719 -12.425781 C 35.761719 -22.34375 28.175781 -24.09375 19.484375 -24.851562 C 15.574219 -25.261719 13.242188 -25.609375 13.242188 -28.351562 C 13.242188 -31.445312 16.394531 -32.085938 18.785156 -32.085938 C 21.644531 -32.085938 24.269531 -30.917969 24.328125 -28.117188 L 34.300781 -28.117188 C 34.476562 -36.984375 26.484375 -41.476562 18.609375 -41.476562 C 10.265625 -41.476562 2.742188 -36.984375 2.742188 -28.117188 C 2.742188 -19.601562 10.207031 -16.917969 17.675781 -16.449219 C 20.652344 -16.277344 25.203125 -16.394531 25.203125 -12.484375 C 25.203125 -9.859375 21.992188 -8.632812 18.960938 -8.632812 C 15.691406 -8.632812 12.484375 -10.035156 12.484375 -12.835938 Z M 12.484375 -12.835938 "/></g></g></g><g fill="#0466c8" fill-opacity="1"><g transform="translate(190.187384, 66.572469)"><g><path d="M 1.109375 -31.5 L 11.140625 -31.5 L 11.140625 0 L 21.46875 0 L 21.46875 -31.5 L 31.445312 -31.5 L 31.445312 -40.835938 L 1.109375 -40.835938 Z M 1.109375 -31.5 "/></g></g></g><g fill="#0466c8" fill-opacity="1"><g transform="translate(222.737027, 66.572469)"><g><path d="M 23.859375 -8.632812 L 18.667969 -8.632812 L 18.667969 -32.203125 L 23.394531 -32.203125 L 23.394531 -40.835938 L 3.265625 -40.835938 L 3.265625 -32.203125 L 7.992188 -32.203125 L 7.992188 -8.632812 L 2.800781 -8.632812 L 2.800781 0 L 23.859375 0 Z M 23.859375 -8.632812 "/></g></g></g><g fill="#0466c8" fill-opacity="1"><g transform="translate(249.395055, 66.572469)"><g><path d="M 12.777344 -5.074219 L 28.058594 -5.074219 L 30.453125 0 L 41.476562 0 L 41.476562 -1.457031 L 22.925781 -41.246094 L 18.027344 -41.246094 L -0.699219 -1.457031 L -0.699219 0 L 10.441406 0 Z M 16.21875 -14 L 20.417969 -23.859375 L 24.675781 -14 Z M 16.21875 -14 "/></g></g></g><g fill="#0466c8" fill-opacity="1"><g transform="translate(290.227952, 66.572469)"><g><path d="M 15.050781 -21.058594 L 36.519531 0.117188 L 39.667969 0.117188 L 39.667969 -40.835938 L 28.992188 -40.835938 L 28.992188 -20.882812 L 7.699219 -41.011719 L 4.375 -41.011719 L 4.375 0 L 15.050781 0 Z M 15.050781 -21.058594 "/></g></g></g><g fill="#0466c8" fill-opacity="1"><g transform="translate(17.924861, 148.105043)"><g><path d="M 19.953125 -18.027344 L 19.777344 -18.027344 L 16.335938 -28.703125 L 11.199219 -40.835938 L -0.175781 -40.835938 L -0.175781 -39.261719 L 17.617188 0.410156 L 22.050781 0.410156 L 39.667969 -39.261719 L 39.667969 -40.835938 L 28.292969 -40.835938 L 23.277344 -28.703125 Z M 19.953125 -18.027344 "/></g></g></g><g fill="#0466c8" fill-opacity="1"><g transform="translate(57.47443, 148.105043)"><g><path d="M 29.867188 -31.558594 L 29.867188 -40.835938 L 4.375 -40.835938 L 4.375 0 L 30.394531 0 L 30.394531 -9.742188 L 15.050781 -9.742188 L 15.050781 -16.394531 L 28.703125 -16.394531 L 28.703125 -25.726562 L 15.050781 -25.726562 L 15.050781 -31.558594 Z M 29.867188 -31.558594 "/></g></g></g><g fill="#0466c8" fill-opacity="1"><g transform="translate(90.840731, 148.105043)"><g><path d="M 15.050781 -9.566406 L 15.050781 -40.835938 L 4.375 -40.835938 L 4.375 0 L 29.808594 0 L 29.808594 -9.566406 Z M 15.050781 -9.566406 "/></g></g></g><g fill="#0466c8" fill-opacity="1"><g transform="translate(121.640397, 148.105043)"><g><path d="M 12.777344 -5.074219 L 28.058594 -5.074219 L 30.453125 0 L 41.476562 0 L 41.476562 -1.457031 L 22.925781 -41.246094 L 18.027344 -41.246094 L -0.699219 -1.457031 L -0.699219 0 L 10.441406 0 Z M 16.21875 -14 L 20.417969 -23.859375 L 24.675781 -14 Z M 16.21875 -14 "/></g></g></g><g fill="#0466c8" fill-opacity="1"><g transform="translate(162.473283, 148.105043)"><g><path d="M 12.484375 -12.835938 L 2.332031 -12.835938 C 2.160156 -3.675781 10.441406 0.640625 19.078125 0.640625 C 27.417969 0.640625 35.761719 -3.851562 35.761719 -12.425781 C 35.761719 -22.34375 28.175781 -24.09375 19.484375 -24.851562 C 15.574219 -25.261719 13.242188 -25.609375 13.242188 -28.351562 C 13.242188 -31.445312 16.394531 -32.085938 18.785156 -32.085938 C 21.644531 -32.085938 24.269531 -30.917969 24.328125 -28.117188 L 34.300781 -28.117188 C 34.476562 -36.984375 26.484375 -41.476562 18.609375 -41.476562 C 10.265625 -41.476562 2.742188 -36.984375 2.742188 -28.117188 C 2.742188 -19.601562 10.207031 -16.917969 17.675781 -16.449219 C 20.652344 -16.277344 25.203125 -16.394531 25.203125 -12.484375 C 25.203125 -9.859375 21.992188 -8.632812 18.960938 -8.632812 C 15.691406 -8.632812 12.484375 -10.035156 12.484375 -12.835938 Z M 12.484375 -12.835938 "/></g></g></g><g fill="#0466c8" fill-opacity="1"><g transform="translate(200.3312, 148.105043)"><g><path d="M 45.152344 0.464844 L 45.152344 -1.109375 L 40.894531 -8.402344 C 42.9375 -11.609375 44.042969 -15.574219 44.042969 -20.417969 C 44.042969 -34.535156 33.601562 -41.476562 23.160156 -41.476562 C 10.675781 -41.476562 2.21875 -33.195312 2.21875 -20.417969 C 2.21875 -7.292969 12.015625 0.410156 22.691406 0.582031 C 26.484375 0.640625 30.394531 -0.292969 33.953125 -2.21875 L 35.527344 0.464844 Z M 12.890625 -20.417969 C 12.890625 -27.710938 17.910156 -31.328125 23.101562 -31.328125 C 28.234375 -31.328125 33.367188 -27.886719 33.367188 -20.417969 C 33.367188 -13.007812 28.234375 -9.332031 23.160156 -9.332031 C 17.910156 -9.332031 12.890625 -13.125 12.890625 -20.417969 Z M 12.890625 -20.417969 "/></g></g></g><g fill="#0466c8" fill-opacity="1"><g transform="translate(246.705677, 148.105043)"><g><path d="M 20.652344 0.523438 C 29.226562 0.523438 37.160156 -4.316406 37.160156 -13.476562 L 37.160156 -40.835938 L 26.601562 -40.835938 L 26.601562 -13.710938 C 26.601562 -10.324219 23.566406 -8.867188 20.710938 -8.867188 C 17.675781 -8.867188 14.699219 -10.324219 14.699219 -13.710938 L 14.699219 -40.835938 L 4.023438 -40.835938 L 4.023438 -13.476562 C 4.023438 -4.316406 12.015625 0.523438 20.652344 0.523438 Z M 20.652344 0.523438 "/></g></g></g><g fill="#0466c8" fill-opacity="1"><g transform="translate(287.888563, 148.105043)"><g><path d="M 29.867188 -31.558594 L 29.867188 -40.835938 L 4.375 -40.835938 L 4.375 0 L 30.394531 0 L 30.394531 -9.742188 L 15.050781 -9.742188 L 15.050781 -16.394531 L 28.703125 -16.394531 L 28.703125 -25.726562 L 15.050781 -25.726562 L 15.050781 -31.558594 Z M 29.867188 -31.558594 "/></g></g></g><g fill="#0466c8" fill-opacity="1"><g transform="translate(321.254876, 148.105043)"><g><path d="M 33.484375 -39.261719 L 33.484375 -40.835938 L 2.859375 -40.835938 L 2.859375 -31.558594 L 17.851562 -31.558594 L 1.398438 -1.515625 L 1.398438 0 L 33.660156 0 L 33.660156 -9.507812 L 17.09375 -9.507812 Z M 33.484375 -39.261719 "/></g></g></g></svg>